<svg width="50" height="50" viewBox="0 0 50 50" fill="none" xmlns="http://www.w3.org/2000/svg">
<rect width="50" height="50" rx="8" fill="black" style="fill:black;fill-opacity:1;"/>
<path d="M10.1281 34.0848C9.81529 34.0848 9.54907 33.975 9.32944 33.7553C9.10981 33.5357 9 33.2695 9 32.9567C9 32.6439 9.10981 32.3743 9.32944 32.148C9.54907 31.9284 9.81529 31.8186 10.1281 31.8186C10.4409 31.8186 10.7104 31.9284 10.9367 32.148C11.1564 32.3743 11.2662 32.6439 11.2662 32.9567C11.2662 33.2695 11.1564 33.5357 10.9367 33.7553C10.7104 33.975 10.4409 34.0848 10.1281 34.0848ZM12.4042 34.0848C12.0914 34.0848 11.8219 33.975 11.5956 33.7553C11.376 33.5357 11.2662 33.2695 11.2662 32.9567C11.2662 32.6439 11.376 32.3743 11.5956 32.148C11.8219 31.9284 12.0914 31.8186 12.4042 31.8186C12.717 31.8186 12.9833 31.9284 13.2029 32.148C13.4292 32.3743 13.5423 32.6439 13.5423 32.9567C13.5423 33.2695 13.4292 33.5357 13.2029 33.7553C12.9833 33.975 12.717 34.0848 12.4042 34.0848ZM10.1281 31.8186C9.81529 31.8186 9.54907 31.7088 9.32944 31.4892C9.10981 31.2629 9 30.9933 9 30.6805C9 30.3677 9.10981 30.1015 9.32944 29.8819C9.54907 29.6556 9.81529 29.5424 10.1281 29.5424C10.4409 29.5424 10.7104 29.6556 10.9367 29.8819C11.1564 30.1015 11.2662 30.3677 11.2662 30.6805C11.2662 30.9933 11.1564 31.2629 10.9367 31.4892C10.7104 31.7088 10.4409 31.8186 10.1281 31.8186ZM12.4042 31.8186C12.0914 31.8186 11.8219 31.7088 11.5956 31.4892C11.376 31.2629 11.2662 30.9933 11.2662 30.6805C11.2662 30.3677 11.376 30.1015 11.5956 29.8819C11.8219 29.6556 12.0914 29.5424 12.4042 29.5424C12.717 29.5424 12.9833 29.6556 13.2029 29.8819C13.4292 30.1015 13.5423 30.3677 13.5423 30.6805C13.5423 30.9933 13.4292 31.2629 13.2029 31.4892C12.9833 31.7088 12.717 31.8186 12.4042 31.8186Z" fill="white" style="fill:white;fill-opacity:1;"/>
<path d="M10.1281 27.2696C9.81529 27.2696 9.54907 27.1598 9.32944 26.9402C9.10981 26.7206 9 26.4543 9 26.1415C9 25.8287 9.10981 25.5592 9.32944 25.3329C9.54907 25.1133 9.81529 25.0035 10.1281 25.0035C10.4409 25.0035 10.7104 25.1133 10.9367 25.3329C11.1564 25.5592 11.2662 25.8287 11.2662 26.1415C11.2662 26.4543 11.1564 26.7206 10.9367 26.9402C10.7104 27.1598 10.4409 27.2696 10.1281 27.2696ZM12.4042 27.2696C12.0914 27.2696 11.8219 27.1598 11.5956 26.9402C11.376 26.7206 11.2662 26.4543 11.2662 26.1415C11.2662 25.8287 11.376 25.5592 11.5956 25.3329C11.8219 25.1133 12.0914 25.0035 12.4042 25.0035C12.717 25.0035 12.9833 25.1133 13.2029 25.3329C13.4292 25.5592 13.5423 25.8287 13.5423 26.1415C13.5423 26.4543 13.4292 26.7206 13.2029 26.9402C12.9833 27.1598 12.717 27.2696 12.4042 27.2696ZM10.1281 25.0035C9.81529 25.0035 9.54907 24.8936 9.32944 24.674C9.10981 24.4477 9 24.1782 9 23.8654C9 23.5526 9.10981 23.2864 9.32944 23.0667C9.54907 22.8405 9.81529 22.7273 10.1281 22.7273C10.4409 22.7273 10.7104 22.8405 10.9367 23.0667C11.1564 23.2864 11.2662 23.5526 11.2662 23.8654C11.2662 24.1782 11.1564 24.4477 10.9367 24.674C10.7104 24.8936 10.4409 25.0035 10.1281 25.0035ZM12.4042 25.0035C12.0914 25.0035 11.8219 24.8936 11.5956 24.674C11.376 24.4477 11.2662 24.1782 11.2662 23.8654C11.2662 23.5526 11.376 23.2864 11.5956 23.0667C11.8219 22.8405 12.0914 22.7273 12.4042 22.7273C12.717 22.7273 12.9833 22.8405 13.2029 23.0667C13.4292 23.2864 13.5423 23.5526 13.5423 23.8654C13.5423 24.1782 13.4292 24.4477 13.2029 24.674C12.9833 24.8936 12.717 25.0035 12.4042 25.0035Z" fill="white" style="fill:white;fill-opacity:1;"/>
<path d="M10.1281 20.4545C9.81529 20.4545 9.54907 20.3447 9.32944 20.1251C9.10981 19.9055 9 19.6392 9 19.3264C9 19.0136 9.10981 18.7441 9.32944 18.5178C9.54907 18.2982 9.81529 18.1884 10.1281 18.1884C10.4409 18.1884 10.7104 18.2982 10.9367 18.5178C11.1564 18.7441 11.2662 19.0136 11.2662 19.3264C11.2662 19.6392 11.1564 19.9055 10.9367 20.1251C10.7104 20.3447 10.4409 20.4545 10.1281 20.4545ZM12.4042 20.4545C12.0914 20.4545 11.8219 20.3447 11.5956 20.1251C11.376 19.9055 11.2662 19.6392 11.2662 19.3264C11.2662 19.0136 11.376 18.7441 11.5956 18.5178C11.8219 18.2982 12.0914 18.1884 12.4042 18.1884C12.717 18.1884 12.9833 18.2982 13.2029 18.5178C13.4292 18.7441 13.5423 19.0136 13.5423 19.3264C13.5423 19.6392 13.4292 19.9055 13.2029 20.1251C12.9833 20.3447 12.717 20.4545 12.4042 20.4545ZM10.1281 18.1884C9.81529 18.1884 9.54907 18.0785 9.32944 17.8589C9.10981 17.6326 9 17.3631 9 17.0503C9 16.7375 9.10981 16.4713 9.32944 16.2516C9.54907 16.0253 9.81529 15.9122 10.1281 15.9122C10.4409 15.9122 10.7104 16.0253 10.9367 16.2516C11.1564 16.4713 11.2662 16.7375 11.2662 17.0503C11.2662 17.3631 11.1564 17.6326 10.9367 17.8589C10.7104 18.0785 10.4409 18.1884 10.1281 18.1884ZM12.4042 18.1884C12.0914 18.1884 11.8219 18.0785 11.5956 17.8589C11.376 17.6326 11.2662 17.3631 11.2662 17.0503C11.2662 16.7375 11.376 16.4713 11.5956 16.2516C11.8219 16.0253 12.0914 15.9122 12.4042 15.9122C12.717 15.9122 12.9833 16.0253 13.2029 16.2516C13.4292 16.4713 13.5423 16.7375 13.5423 17.0503C13.5423 17.3631 13.4292 17.6326 13.2029 17.8589C12.9833 18.0785 12.717 18.1884 12.4042 18.1884Z" fill="#D71923" style="fill:#D71923;fill:color(display-p3 0.8431 0.0980 0.1373);fill-opacity:1;"/>
<path d="M37.3888 34.0848C37.076 34.0848 36.8098 33.975 36.5902 33.7553C36.3706 33.5357 36.2607 33.2695 36.2607 32.9567C36.2607 32.6439 36.3706 32.3743 36.5902 32.148C36.8098 31.9284 37.076 31.8186 37.3888 31.8186C37.7016 31.8186 37.9712 31.9284 38.1975 32.148C38.4171 32.3743 38.5269 32.6439 38.5269 32.9567C38.5269 33.2695 38.4171 33.5357 38.1975 33.7553C37.9712 33.975 37.7016 34.0848 37.3888 34.0848ZM39.665 34.0848C39.3522 34.0848 39.0826 33.975 38.8564 33.7553C38.6367 33.5357 38.5269 33.2695 38.5269 32.9567C38.5269 32.6439 38.6367 32.3743 38.8564 32.148C39.0826 31.9284 39.3522 31.8186 39.665 31.8186C39.9778 31.8186 40.244 31.9284 40.4636 32.148C40.6899 32.3743 40.8031 32.6439 40.8031 32.9567C40.8031 33.2695 40.6899 33.5357 40.4636 33.7553C40.244 33.975 39.9778 34.0848 39.665 34.0848ZM37.3888 31.8186C37.076 31.8186 36.8098 31.7088 36.5902 31.4892C36.3706 31.2629 36.2607 30.9933 36.2607 30.6805C36.2607 30.3677 36.3706 30.1015 36.5902 29.8819C36.8098 29.6556 37.076 29.5424 37.3888 29.5424C37.7016 29.5424 37.9712 29.6556 38.1975 29.8819C38.4171 30.1015 38.5269 30.3677 38.5269 30.6805C38.5269 30.9933 38.4171 31.2629 38.1975 31.4892C37.9712 31.7088 37.7016 31.8186 37.3888 31.8186ZM39.665 31.8186C39.3522 31.8186 39.0826 31.7088 38.8564 31.4892C38.6367 31.2629 38.5269 30.9933 38.5269 30.6805C38.5269 30.3677 38.6367 30.1015 38.8564 29.8819C39.0826 29.6556 39.3522 29.5424 39.665 29.5424C39.9778 29.5424 40.244 29.6556 40.4636 29.8819C40.6899 30.1015 40.8031 30.3677 40.8031 30.6805C40.8031 30.9933 40.6899 31.2629 40.4636 31.4892C40.244 31.7088 39.9778 31.8186 39.665 31.8186Z" fill="white" style="fill:white;fill-opacity:1;"/>
<path d="M37.3888 27.2696C37.076 27.2696 36.8098 27.1598 36.5902 26.9402C36.3706 26.7206 36.2607 26.4543 36.2607 26.1415C36.2607 25.8287 36.3706 25.5592 36.5902 25.3329C36.8098 25.1133 37.076 25.0035 37.3888 25.0035C37.7016 25.0035 37.9712 25.1133 38.1975 25.3329C38.4171 25.5592 38.5269 25.8287 38.5269 26.1415C38.5269 26.4543 38.4171 26.7206 38.1975 26.9402C37.9712 27.1598 37.7016 27.2696 37.3888 27.2696ZM39.665 27.2696C39.3522 27.2696 39.0826 27.1598 38.8564 26.9402C38.6367 26.7206 38.5269 26.4543 38.5269 26.1415C38.5269 25.8287 38.6367 25.5592 38.8564 25.3329C39.0826 25.1133 39.3522 25.0035 39.665 25.0035C39.9778 25.0035 40.244 25.1133 40.4636 25.3329C40.6899 25.5592 40.8031 25.8287 40.8031 26.1415C40.8031 26.4543 40.6899 26.7206 40.4636 26.9402C40.244 27.1598 39.9778 27.2696 39.665 27.2696ZM37.3888 25.0035C37.076 25.0035 36.8098 24.8936 36.5902 24.674C36.3706 24.4477 36.2607 24.1782 36.2607 23.8654C36.2607 23.5526 36.3706 23.2864 36.5902 23.0667C36.8098 22.8405 37.076 22.7273 37.3888 22.7273C37.7016 22.7273 37.9712 22.8405 38.1975 23.0667C38.4171 23.2864 38.5269 23.5526 38.5269 23.8654C38.5269 24.1782 38.4171 24.4477 38.1975 24.674C37.9712 24.8936 37.7016 25.0035 37.3888 25.0035ZM39.665 25.0035C39.3522 25.0035 39.0826 24.8936 38.8564 24.674C38.6367 24.4477 38.5269 24.1782 38.5269 23.8654C38.5269 23.5526 38.6367 23.2864 38.8564 23.0667C39.0826 22.8405 39.3522 22.7273 39.665 22.7273C39.9778 22.7273 40.244 22.8405 40.4636 23.0667C40.6899 23.2864 40.8031 23.5526 40.8031 23.8654C40.8031 24.1782 40.6899 24.4477 40.4636 24.674C40.244 24.8936 39.9778 25.0035 39.665 25.0035Z" fill="white" style="fill:white;fill-opacity:1;"/>
<path d="M37.3888 20.4545C37.076 20.4545 36.8098 20.3447 36.5902 20.1251C36.3706 19.9055 36.2607 19.6392 36.2607 19.3264C36.2607 19.0136 36.3706 18.7441 36.5902 18.5178C36.8098 18.2982 37.076 18.1884 37.3888 18.1884C37.7016 18.1884 37.9712 18.2982 38.1975 18.5178C38.4171 18.7441 38.5269 19.0136 38.5269 19.3264C38.5269 19.6392 38.4171 19.9055 38.1975 20.1251C37.9712 20.3447 37.7016 20.4545 37.3888 20.4545ZM39.665 20.4545C39.3522 20.4545 39.0826 20.3447 38.8564 20.1251C38.6367 19.9055 38.5269 19.6392 38.5269 19.3264C38.5269 19.0136 38.6367 18.7441 38.8564 18.5178C39.0826 18.2982 39.3522 18.1884 39.665 18.1884C39.9778 18.1884 40.244 18.2982 40.4636 18.5178C40.6899 18.7441 40.8031 19.0136 40.8031 19.3264C40.8031 19.6392 40.6899 19.9055 40.4636 20.1251C40.244 20.3447 39.9778 20.4545 39.665 20.4545ZM37.3888 18.1884C37.076 18.1884 36.8098 18.0785 36.5902 17.8589C36.3706 17.6326 36.2607 17.3631 36.2607 17.0503C36.2607 16.7375 36.3706 16.4713 36.5902 16.2516C36.8098 16.0253 37.076 15.9122 37.3888 15.9122C37.7016 15.9122 37.9712 16.0253 38.1975 16.2516C38.4171 16.4713 38.5269 16.7375 38.5269 17.0503C38.5269 17.3631 38.4171 17.6326 38.1975 17.8589C37.9712 18.0785 37.7016 18.1884 37.3888 18.1884ZM39.665 18.1884C39.3522 18.1884 39.0826 18.0785 38.8564 17.8589C38.6367 17.6326 38.5269 17.3631 38.5269 17.0503C38.5269 16.7375 38.6367 16.4713 38.8564 16.2516C39.0826 16.0253 39.3522 15.9122 39.665 15.9122C39.9778 15.9122 40.244 16.0253 40.4636 16.2516C40.6899 16.4713 40.8031 16.7375 40.8031 17.0503C40.8031 17.3631 40.6899 17.6326 40.4636 17.8589C40.244 18.0785 39.9778 18.1884 39.665 18.1884Z" fill="white" style="fill:white;fill-opacity:1;"/>
<path d="M16.9433 40.8999C16.6305 40.8999 16.3643 40.7901 16.1446 40.5705C15.925 40.3509 15.8152 40.0846 15.8152 39.7718C15.8152 39.459 15.925 39.1895 16.1446 38.9632C16.3643 38.7436 16.6305 38.6338 16.9433 38.6338C17.2561 38.6338 17.5256 38.7436 17.7519 38.9632C17.9715 39.1895 18.0814 39.459 18.0814 39.7718C18.0814 40.0846 17.9715 40.3509 17.7519 40.5705C17.5256 40.7901 17.2561 40.8999 16.9433 40.8999ZM19.2194 40.8999C18.9066 40.8999 18.6371 40.7901 18.4108 40.5705C18.1912 40.3509 18.0814 40.0846 18.0814 39.7718C18.0814 39.459 18.1912 39.1895 18.4108 38.9632C18.6371 38.7436 18.9066 38.6338 19.2194 38.6338C19.5322 38.6338 19.7985 38.7436 20.0181 38.9632C20.2444 39.1895 20.3575 39.459 20.3575 39.7718C20.3575 40.0846 20.2444 40.3509 20.0181 40.5705C19.7985 40.7901 19.5322 40.8999 19.2194 40.8999ZM16.9433 38.6338C16.6305 38.6338 16.3643 38.5239 16.1446 38.3043C15.925 38.078 15.8152 37.8085 15.8152 37.4957C15.8152 37.1829 15.925 36.9167 16.1446 36.697C16.3643 36.4707 16.6305 36.3576 16.9433 36.3576C17.2561 36.3576 17.5256 36.4707 17.7519 36.697C17.9715 36.9167 18.0814 37.1829 18.0814 37.4957C18.0814 37.8085 17.9715 38.078 17.7519 38.3043C17.5256 38.5239 17.2561 38.6338 16.9433 38.6338ZM19.2194 38.6338C18.9066 38.6338 18.6371 38.5239 18.4108 38.3043C18.1912 38.078 18.0814 37.8085 18.0814 37.4957C18.0814 37.1829 18.1912 36.9167 18.4108 36.697C18.6371 36.4707 18.9066 36.3576 19.2194 36.3576C19.5322 36.3576 19.7985 36.4707 20.0181 36.697C20.2444 36.9167 20.3575 37.1829 20.3575 37.4957C20.3575 37.8085 20.2444 38.078 20.0181 38.3043C19.7985 38.5239 19.5322 38.6338 19.2194 38.6338Z" fill="white" style="fill:white;fill-opacity:1;"/>
<path d="M16.9433 34.0848C16.6305 34.0848 16.3643 33.975 16.1446 33.7553C15.925 33.5357 15.8152 33.2695 15.8152 32.9567C15.8152 32.6439 15.925 32.3743 16.1446 32.148C16.3643 31.9284 16.6305 31.8186 16.9433 31.8186C17.2561 31.8186 17.5256 31.9284 17.7519 32.148C17.9715 32.3743 18.0814 32.6439 18.0814 32.9567C18.0814 33.2695 17.9715 33.5357 17.7519 33.7553C17.5256 33.975 17.2561 34.0848 16.9433 34.0848ZM19.2194 34.0848C18.9066 34.0848 18.6371 33.975 18.4108 33.7553C18.1912 33.5357 18.0814 33.2695 18.0814 32.9567C18.0814 32.6439 18.1912 32.3743 18.4108 32.148C18.6371 31.9284 18.9066 31.8186 19.2194 31.8186C19.5322 31.8186 19.7985 31.9284 20.0181 32.148C20.2444 32.3743 20.3575 32.6439 20.3575 32.9567C20.3575 33.2695 20.2444 33.5357 20.0181 33.7553C19.7985 33.975 19.5322 34.0848 19.2194 34.0848ZM16.9433 31.8186C16.6305 31.8186 16.3643 31.7088 16.1446 31.4892C15.925 31.2629 15.8152 30.9933 15.8152 30.6805C15.8152 30.3677 15.925 30.1015 16.1446 29.8819C16.3643 29.6556 16.6305 29.5424 16.9433 29.5424C17.2561 29.5424 17.5256 29.6556 17.7519 29.8819C17.9715 30.1015 18.0814 30.3677 18.0814 30.6805C18.0814 30.9933 17.9715 31.2629 17.7519 31.4892C17.5256 31.7088 17.2561 31.8186 16.9433 31.8186ZM19.2194 31.8186C18.9066 31.8186 18.6371 31.7088 18.4108 31.4892C18.1912 31.2629 18.0814 30.9933 18.0814 30.6805C18.0814 30.3677 18.1912 30.1015 18.4108 29.8819C18.6371 29.6556 18.9066 29.5424 19.2194 29.5424C19.5322 29.5424 19.7985 29.6556 20.0181 29.8819C20.2444 30.1015 20.3575 30.3677 20.3575 30.6805C20.3575 30.9933 20.2444 31.2629 20.0181 31.4892C19.7985 31.7088 19.5322 31.8186 19.2194 31.8186Z" fill="white" style="fill:white;fill-opacity:1;"/>
<path d="M16.9433 27.2696C16.6305 27.2696 16.3643 27.1598 16.1446 26.9402C15.925 26.7206 15.8152 26.4543 15.8152 26.1415C15.8152 25.8287 15.925 25.5592 16.1446 25.3329C16.3643 25.1133 16.6305 25.0035 16.9433 25.0035C17.2561 25.0035 17.5256 25.1133 17.7519 25.3329C17.9715 25.5592 18.0814 25.8287 18.0814 26.1415C18.0814 26.4543 17.9715 26.7206 17.7519 26.9402C17.5256 27.1598 17.2561 27.2696 16.9433 27.2696ZM19.2194 27.2696C18.9066 27.2696 18.6371 27.1598 18.4108 26.9402C18.1912 26.7206 18.0814 26.4543 18.0814 26.1415C18.0814 25.8287 18.1912 25.5592 18.4108 25.3329C18.6371 25.1133 18.9066 25.0035 19.2194 25.0035C19.5322 25.0035 19.7985 25.1133 20.0181 25.3329C20.2444 25.5592 20.3575 25.8287 20.3575 26.1415C20.3575 26.4543 20.2444 26.7206 20.0181 26.9402C19.7985 27.1598 19.5322 27.2696 19.2194 27.2696ZM16.9433 25.0035C16.6305 25.0035 16.3643 24.8936 16.1446 24.674C15.925 24.4477 15.8152 24.1782 15.8152 23.8654C15.8152 23.5526 15.925 23.2864 16.1446 23.0667C16.3643 22.8405 16.6305 22.7273 16.9433 22.7273C17.2561 22.7273 17.5256 22.8405 17.7519 23.0667C17.9715 23.2864 18.0814 23.5526 18.0814 23.8654C18.0814 24.1782 17.9715 24.4477 17.7519 24.674C17.5256 24.8936 17.2561 25.0035 16.9433 25.0035ZM19.2194 25.0035C18.9066 25.0035 18.6371 24.8936 18.4108 24.674C18.1912 24.4477 18.0814 24.1782 18.0814 23.8654C18.0814 23.5526 18.1912 23.2864 18.4108 23.0667C18.6371 22.8405 18.9066 22.7273 19.2194 22.7273C19.5322 22.7273 19.7985 22.8405 20.0181 23.0667C20.2444 23.2864 20.3575 23.5526 20.3575 23.8654C20.3575 24.1782 20.2444 24.4477 20.0181 24.674C19.7985 24.8936 19.5322 25.0035 19.2194 25.0035Z" fill="white" style="fill:white;fill-opacity:1;"/>
<path d="M16.9433 20.4545C16.6305 20.4545 16.3643 20.3447 16.1446 20.1251C15.925 19.9055 15.8152 19.6392 15.8152 19.3264C15.8152 19.0136 15.925 18.7441 16.1446 18.5178C16.3643 18.2982 16.6305 18.1884 16.9433 18.1884C17.2561 18.1884 17.5256 18.2982 17.7519 18.5178C17.9715 18.7441 18.0814 19.0136 18.0814 19.3264C18.0814 19.6392 17.9715 19.9055 17.7519 20.1251C17.5256 20.3447 17.2561 20.4545 16.9433 20.4545ZM19.2194 20.4545C18.9066 20.4545 18.6371 20.3447 18.4108 20.1251C18.1912 19.9055 18.0814 19.6392 18.0814 19.3264C18.0814 19.0136 18.1912 18.7441 18.4108 18.5178C18.6371 18.2982 18.9066 18.1884 19.2194 18.1884C19.5322 18.1884 19.7985 18.2982 20.0181 18.5178C20.2444 18.7441 20.3575 19.0136 20.3575 19.3264C20.3575 19.6392 20.2444 19.9055 20.0181 20.1251C19.7985 20.3447 19.5322 20.4545 19.2194 20.4545ZM16.9433 18.1884C16.6305 18.1884 16.3643 18.0785 16.1446 17.8589C15.925 17.6326 15.8152 17.3631 15.8152 17.0503C15.8152 16.7375 15.925 16.4713 16.1446 16.2516C16.3643 16.0253 16.6305 15.9122 16.9433 15.9122C17.2561 15.9122 17.5256 16.0253 17.7519 16.2516C17.9715 16.4713 18.0814 16.7375 18.0814 17.0503C18.0814 17.3631 17.9715 17.6326 17.7519 17.8589C17.5256 18.0785 17.2561 18.1884 16.9433 18.1884ZM19.2194 18.1884C18.9066 18.1884 18.6371 18.0785 18.4108 17.8589C18.1912 17.6326 18.0814 17.3631 18.0814 17.0503C18.0814 16.7375 18.1912 16.4713 18.4108 16.2516C18.6371 16.0253 18.9066 15.9122 19.2194 15.9122C19.5322 15.9122 19.7985 16.0253 20.0181 16.2516C20.2444 16.4713 20.3575 16.7375 20.3575 17.0503C20.3575 17.3631 20.2444 17.6326 20.0181 17.8589C19.7985 18.0785 19.5322 18.1884 19.2194 18.1884Z" fill="#D71923" style="fill:#D71923;fill:color(display-p3 0.8431 0.0980 0.1373);fill-opacity:1;"/>
<path d="M16.943 13.6394C16.6302 13.6394 16.364 13.5296 16.1444 13.3099C15.9248 13.0903 15.8149 12.8241 15.8149 12.5113C15.8149 12.1985 15.9248 11.9289 16.1444 11.7026C16.364 11.483 16.6302 11.3732 16.943 11.3732C17.2558 11.3732 17.5254 11.483 17.7517 11.7026C17.9713 11.9289 18.0811 12.1985 18.0811 12.5113C18.0811 12.8241 17.9713 13.0903 17.7517 13.3099C17.5254 13.5296 17.2558 13.6394 16.943 13.6394ZM19.2192 13.6394C18.9064 13.6394 18.6368 13.5296 18.4106 13.3099C18.1909 13.0903 18.0811 12.8241 18.0811 12.5113C18.0811 12.1985 18.1909 11.9289 18.4106 11.7026C18.6368 11.483 18.9064 11.3732 19.2192 11.3732C19.532 11.3732 19.7982 11.483 20.0178 11.7026C20.2441 11.9289 20.3573 12.1985 20.3573 12.5113C20.3573 12.8241 20.2441 13.0903 20.0178 13.3099C19.7982 13.5296 19.532 13.6394 19.2192 13.6394ZM16.943 11.3732C16.6302 11.3732 16.364 11.2634 16.1444 11.0438C15.9248 10.8175 15.8149 10.5479 15.8149 10.2351C15.8149 9.92232 15.9248 9.6561 16.1444 9.43647C16.364 9.21019 16.6302 9.09705 16.943 9.09705C17.2558 9.09705 17.5254 9.21019 17.7517 9.43647C17.9713 9.6561 18.0811 9.92232 18.0811 10.2351C18.0811 10.5479 17.9713 10.8175 17.7517 11.0438C17.5254 11.2634 17.2558 11.3732 16.943 11.3732ZM19.2192 11.3732C18.9064 11.3732 18.6368 11.2634 18.4106 11.0438C18.1909 10.8175 18.0811 10.5479 18.0811 10.2351C18.0811 9.92232 18.1909 9.6561 18.4106 9.43647C18.6368 9.21019 18.9064 9.09705 19.2192 9.09705C19.532 9.09705 19.7982 9.21019 20.0178 9.43647C20.2441 9.6561 20.3573 9.92232 20.3573 10.2351C20.3573 10.5479 20.2441 10.8175 20.0178 11.0438C19.7982 11.2634 19.532 11.3732 19.2192 11.3732Z" fill="#D71923" style="fill:#D71923;fill:color(display-p3 0.8431 0.0980 0.1373);fill-opacity:1;"/>
<path d="M23.7582 40.8999C23.4454 40.8999 23.1792 40.7901 22.9596 40.5705C22.7399 40.3509 22.6301 40.0846 22.6301 39.7718C22.6301 39.459 22.7399 39.1895 22.9596 38.9632C23.1792 38.7436 23.4454 38.6338 23.7582 38.6338C24.071 38.6338 24.3406 38.7436 24.5669 38.9632C24.7865 39.1895 24.8963 39.459 24.8963 39.7718C24.8963 40.0846 24.7865 40.3509 24.5669 40.5705C24.3406 40.7901 24.071 40.8999 23.7582 40.8999ZM26.0344 40.8999C25.7216 40.8999 25.452 40.7901 25.2257 40.5705C25.0061 40.3509 24.8963 40.0846 24.8963 39.7718C24.8963 39.459 25.0061 39.1895 25.2257 38.9632C25.452 38.7436 25.7216 38.6338 26.0344 38.6338C26.3472 38.6338 26.6134 38.7436 26.833 38.9632C27.0593 39.1895 27.1724 39.459 27.1724 39.7718C27.1724 40.0846 27.0593 40.3509 26.833 40.5705C26.6134 40.7901 26.3472 40.8999 26.0344 40.8999ZM23.7582 38.6338C23.4454 38.6338 23.1792 38.5239 22.9596 38.3043C22.7399 38.078 22.6301 37.8085 22.6301 37.4957C22.6301 37.1829 22.7399 36.9167 22.9596 36.697C23.1792 36.4707 23.4454 36.3576 23.7582 36.3576C24.071 36.3576 24.3406 36.4707 24.5669 36.697C24.7865 36.9167 24.8963 37.1829 24.8963 37.4957C24.8963 37.8085 24.7865 38.078 24.5669 38.3043C24.3406 38.5239 24.071 38.6338 23.7582 38.6338ZM26.0344 38.6338C25.7216 38.6338 25.452 38.5239 25.2257 38.3043C25.0061 38.078 24.8963 37.8085 24.8963 37.4957C24.8963 37.1829 25.0061 36.9167 25.2257 36.697C25.452 36.4707 25.7216 36.3576 26.0344 36.3576C26.3472 36.3576 26.6134 36.4707 26.833 36.697C27.0593 36.9167 27.1724 37.1829 27.1724 37.4957C27.1724 37.8085 27.0593 38.078 26.833 38.3043C26.6134 38.5239 26.3472 38.6338 26.0344 38.6338Z" fill="white" style="fill:white;fill-opacity:1;"/>
<path d="M23.7582 34.0848C23.4454 34.0848 23.1792 33.975 22.9596 33.7553C22.7399 33.5357 22.6301 33.2695 22.6301 32.9567C22.6301 32.6439 22.7399 32.3743 22.9596 32.148C23.1792 31.9284 23.4454 31.8186 23.7582 31.8186C24.071 31.8186 24.3406 31.9284 24.5669 32.148C24.7865 32.3743 24.8963 32.6439 24.8963 32.9567C24.8963 33.2695 24.7865 33.5357 24.5669 33.7553C24.3406 33.975 24.071 34.0848 23.7582 34.0848ZM26.0344 34.0848C25.7216 34.0848 25.452 33.975 25.2257 33.7553C25.0061 33.5357 24.8963 33.2695 24.8963 32.9567C24.8963 32.6439 25.0061 32.3743 25.2257 32.148C25.452 31.9284 25.7216 31.8186 26.0344 31.8186C26.3472 31.8186 26.6134 31.9284 26.833 32.148C27.0593 32.3743 27.1724 32.6439 27.1724 32.9567C27.1724 33.2695 27.0593 33.5357 26.833 33.7553C26.6134 33.975 26.3472 34.0848 26.0344 34.0848ZM23.7582 31.8186C23.4454 31.8186 23.1792 31.7088 22.9596 31.4892C22.7399 31.2629 22.6301 30.9933 22.6301 30.6805C22.6301 30.3677 22.7399 30.1015 22.9596 29.8819C23.1792 29.6556 23.4454 29.5424 23.7582 29.5424C24.071 29.5424 24.3406 29.6556 24.5669 29.8819C24.7865 30.1015 24.8963 30.3677 24.8963 30.6805C24.8963 30.9933 24.7865 31.2629 24.5669 31.4892C24.3406 31.7088 24.071 31.8186 23.7582 31.8186ZM26.0344 31.8186C25.7216 31.8186 25.452 31.7088 25.2257 31.4892C25.0061 31.2629 24.8963 30.9933 24.8963 30.6805C24.8963 30.3677 25.0061 30.1015 25.2257 29.8819C25.452 29.6556 25.7216 29.5424 26.0344 29.5424C26.3472 29.5424 26.6134 29.6556 26.833 29.8819C27.0593 30.1015 27.1724 30.3677 27.1724 30.6805C27.1724 30.9933 27.0593 31.2629 26.833 31.4892C26.6134 31.7088 26.3472 31.8186 26.0344 31.8186Z" fill="white" style="fill:white;fill-opacity:1;"/>
<path d="M23.7582 27.2696C23.4454 27.2696 23.1792 27.1598 22.9596 26.9402C22.7399 26.7206 22.6301 26.4543 22.6301 26.1415C22.6301 25.8287 22.7399 25.5592 22.9596 25.3329C23.1792 25.1133 23.4454 25.0035 23.7582 25.0035C24.071 25.0035 24.3406 25.1133 24.5669 25.3329C24.7865 25.5592 24.8963 25.8287 24.8963 26.1415C24.8963 26.4543 24.7865 26.7206 24.5669 26.9402C24.3406 27.1598 24.071 27.2696 23.7582 27.2696ZM26.0344 27.2696C25.7216 27.2696 25.452 27.1598 25.2257 26.9402C25.0061 26.7206 24.8963 26.4543 24.8963 26.1415C24.8963 25.8287 25.0061 25.5592 25.2257 25.3329C25.452 25.1133 25.7216 25.0035 26.0344 25.0035C26.3472 25.0035 26.6134 25.1133 26.833 25.3329C27.0593 25.5592 27.1724 25.8287 27.1724 26.1415C27.1724 26.4543 27.0593 26.7206 26.833 26.9402C26.6134 27.1598 26.3472 27.2696 26.0344 27.2696ZM23.7582 25.0035C23.4454 25.0035 23.1792 24.8936 22.9596 24.674C22.7399 24.4477 22.6301 24.1782 22.6301 23.8654C22.6301 23.5526 22.7399 23.2864 22.9596 23.0667C23.1792 22.8405 23.4454 22.7273 23.7582 22.7273C24.071 22.7273 24.3406 22.8405 24.5669 23.0667C24.7865 23.2864 24.8963 23.5526 24.8963 23.8654C24.8963 24.1782 24.7865 24.4477 24.5669 24.674C24.3406 24.8936 24.071 25.0035 23.7582 25.0035ZM26.0344 25.0035C25.7216 25.0035 25.452 24.8936 25.2257 24.674C25.0061 24.4477 24.8963 24.1782 24.8963 23.8654C24.8963 23.5526 25.0061 23.2864 25.2257 23.0667C25.452 22.8405 25.7216 22.7273 26.0344 22.7273C26.3472 22.7273 26.6134 22.8405 26.833 23.0667C27.0593 23.2864 27.1724 23.5526 27.1724 23.8654C27.1724 24.1782 27.0593 24.4477 26.833 24.674C26.6134 24.8936 26.3472 25.0035 26.0344 25.0035Z" fill="white" style="fill:white;fill-opacity:1;"/>
<path d="M23.7582 20.4545C23.4454 20.4545 23.1792 20.3447 22.9596 20.1251C22.7399 19.9055 22.6301 19.6392 22.6301 19.3264C22.6301 19.0136 22.7399 18.7441 22.9596 18.5178C23.1792 18.2982 23.4454 18.1884 23.7582 18.1884C24.071 18.1884 24.3406 18.2982 24.5669 18.5178C24.7865 18.7441 24.8963 19.0136 24.8963 19.3264C24.8963 19.6392 24.7865 19.9055 24.5669 20.1251C24.3406 20.3447 24.071 20.4545 23.7582 20.4545ZM26.0344 20.4545C25.7216 20.4545 25.452 20.3447 25.2257 20.1251C25.0061 19.9055 24.8963 19.6392 24.8963 19.3264C24.8963 19.0136 25.0061 18.7441 25.2257 18.5178C25.452 18.2982 25.7216 18.1884 26.0344 18.1884C26.3472 18.1884 26.6134 18.2982 26.833 18.5178C27.0593 18.7441 27.1724 19.0136 27.1724 19.3264C27.1724 19.6392 27.0593 19.9055 26.833 20.1251C26.6134 20.3447 26.3472 20.4545 26.0344 20.4545ZM23.7582 18.1884C23.4454 18.1884 23.1792 18.0785 22.9596 17.8589C22.7399 17.6326 22.6301 17.3631 22.6301 17.0503C22.6301 16.7375 22.7399 16.4713 22.9596 16.2516C23.1792 16.0253 23.4454 15.9122 23.7582 15.9122C24.071 15.9122 24.3406 16.0253 24.5669 16.2516C24.7865 16.4713 24.8963 16.7375 24.8963 17.0503C24.8963 17.3631 24.7865 17.6326 24.5669 17.8589C24.3406 18.0785 24.071 18.1884 23.7582 18.1884ZM26.0344 18.1884C25.7216 18.1884 25.452 18.0785 25.2257 17.8589C25.0061 17.6326 24.8963 17.3631 24.8963 17.0503C24.8963 16.7375 25.0061 16.4713 25.2257 16.2516C25.452 16.0253 25.7216 15.9122 26.0344 15.9122C26.3472 15.9122 26.6134 16.0253 26.833 16.2516C27.0593 16.4713 27.1724 16.7375 27.1724 17.0503C27.1724 17.3631 27.0593 17.6326 26.833 17.8589C26.6134 18.0785 26.3472 18.1884 26.0344 18.1884Z" fill="white" style="fill:white;fill-opacity:1;"/>
<path d="M23.7582 13.6394C23.4454 13.6394 23.1792 13.5296 22.9596 13.3099C22.7399 13.0903 22.6301 12.8241 22.6301 12.5113C22.6301 12.1985 22.7399 11.9289 22.9596 11.7026C23.1792 11.483 23.4454 11.3732 23.7582 11.3732C24.071 11.3732 24.3406 11.483 24.5669 11.7026C24.7865 11.9289 24.8963 12.1985 24.8963 12.5113C24.8963 12.8241 24.7865 13.0903 24.5669 13.3099C24.3406 13.5296 24.071 13.6394 23.7582 13.6394ZM26.0344 13.6394C25.7216 13.6394 25.452 13.5296 25.2257 13.3099C25.0061 13.0903 24.8963 12.8241 24.8963 12.5113C24.8963 12.1985 25.0061 11.9289 25.2257 11.7026C25.452 11.483 25.7216 11.3732 26.0344 11.3732C26.3472 11.3732 26.6134 11.483 26.833 11.7026C27.0593 11.9289 27.1724 12.1985 27.1724 12.5113C27.1724 12.8241 27.0593 13.0903 26.833 13.3099C26.6134 13.5296 26.3472 13.6394 26.0344 13.6394ZM23.7582 11.3732C23.4454 11.3732 23.1792 11.2634 22.9596 11.0438C22.7399 10.8175 22.6301 10.5479 22.6301 10.2351C22.6301 9.92232 22.7399 9.6561 22.9596 9.43647C23.1792 9.21019 23.4454 9.09705 23.7582 9.09705C24.071 9.09705 24.3406 9.21019 24.5669 9.43647C24.7865 9.6561 24.8963 9.92232 24.8963 10.2351C24.8963 10.5479 24.7865 10.8175 24.5669 11.0438C24.3406 11.2634 24.071 11.3732 23.7582 11.3732ZM26.0344 11.3732C25.7216 11.3732 25.452 11.2634 25.2257 11.0438C25.0061 10.8175 24.8963 10.5479 24.8963 10.2351C24.8963 9.92232 25.0061 9.6561 25.2257 9.43647C25.452 9.21019 25.7216 9.09705 26.0344 9.09705C26.3472 9.09705 26.6134 9.21019 26.833 9.43647C27.0593 9.6561 27.1724 9.92232 27.1724 10.2351C27.1724 10.5479 27.0593 10.8175 26.833 11.0438C26.6134 11.2634 26.3472 11.3732 26.0344 11.3732Z" fill="#D71923" style="fill:#D71923;fill:color(display-p3 0.8431 0.0980 0.1373);fill-opacity:1;"/>
<path d="M30.5734 40.8999C30.2606 40.8999 29.9944 40.7901 29.7748 40.5705C29.5551 40.3509 29.4453 40.0846 29.4453 39.7718C29.4453 39.459 29.5551 39.1895 29.7748 38.9632C29.9944 38.7436 30.2606 38.6338 30.5734 38.6338C30.8862 38.6338 31.1558 38.7436 31.382 38.9632C31.6017 39.1895 31.7115 39.459 31.7115 39.7718C31.7115 40.0846 31.6017 40.3509 31.382 40.5705C31.1558 40.7901 30.8862 40.8999 30.5734 40.8999ZM32.8496 40.8999C32.5368 40.8999 32.2672 40.7901 32.0409 40.5705C31.8213 40.3509 31.7115 40.0846 31.7115 39.7718C31.7115 39.459 31.8213 39.1895 32.0409 38.9632C32.2672 38.7436 32.5368 38.6338 32.8496 38.6338C33.1624 38.6338 33.4286 38.7436 33.6482 38.9632C33.8745 39.1895 33.9876 39.459 33.9876 39.7718C33.9876 40.0846 33.8745 40.3509 33.6482 40.5705C33.4286 40.7901 33.1624 40.8999 32.8496 40.8999ZM30.5734 38.6338C30.2606 38.6338 29.9944 38.5239 29.7748 38.3043C29.5551 38.078 29.4453 37.8085 29.4453 37.4957C29.4453 37.1829 29.5551 36.9167 29.7748 36.697C29.9944 36.4707 30.2606 36.3576 30.5734 36.3576C30.8862 36.3576 31.1558 36.4707 31.382 36.697C31.6017 36.9167 31.7115 37.1829 31.7115 37.4957C31.7115 37.8085 31.6017 38.078 31.382 38.3043C31.1558 38.5239 30.8862 38.6338 30.5734 38.6338ZM32.8496 38.6338C32.5368 38.6338 32.2672 38.5239 32.0409 38.3043C31.8213 38.078 31.7115 37.8085 31.7115 37.4957C31.7115 37.1829 31.8213 36.9167 32.0409 36.697C32.2672 36.4707 32.5368 36.3576 32.8496 36.3576C33.1624 36.3576 33.4286 36.4707 33.6482 36.697C33.8745 36.9167 33.9876 37.1829 33.9876 37.4957C33.9876 37.8085 33.8745 38.078 33.6482 38.3043C33.4286 38.5239 33.1624 38.6338 32.8496 38.6338Z" fill="white" style="fill:white;fill-opacity:1;"/>
<path d="M30.5734 34.0848C30.2606 34.0848 29.9944 33.975 29.7748 33.7553C29.5551 33.5357 29.4453 33.2695 29.4453 32.9567C29.4453 32.6439 29.5551 32.3743 29.7748 32.148C29.9944 31.9284 30.2606 31.8186 30.5734 31.8186C30.8862 31.8186 31.1558 31.9284 31.382 32.148C31.6017 32.3743 31.7115 32.6439 31.7115 32.9567C31.7115 33.2695 31.6017 33.5357 31.382 33.7553C31.1558 33.975 30.8862 34.0848 30.5734 34.0848ZM32.8496 34.0848C32.5368 34.0848 32.2672 33.975 32.0409 33.7553C31.8213 33.5357 31.7115 33.2695 31.7115 32.9567C31.7115 32.6439 31.8213 32.3743 32.0409 32.148C32.2672 31.9284 32.5368 31.8186 32.8496 31.8186C33.1624 31.8186 33.4286 31.9284 33.6482 32.148C33.8745 32.3743 33.9876 32.6439 33.9876 32.9567C33.9876 33.2695 33.8745 33.5357 33.6482 33.7553C33.4286 33.975 33.1624 34.0848 32.8496 34.0848ZM30.5734 31.8186C30.2606 31.8186 29.9944 31.7088 29.7748 31.4892C29.5551 31.2629 29.4453 30.9933 29.4453 30.6805C29.4453 30.3677 29.5551 30.1015 29.7748 29.8819C29.9944 29.6556 30.2606 29.5424 30.5734 29.5424C30.8862 29.5424 31.1558 29.6556 31.382 29.8819C31.6017 30.1015 31.7115 30.3677 31.7115 30.6805C31.7115 30.9933 31.6017 31.2629 31.382 31.4892C31.1558 31.7088 30.8862 31.8186 30.5734 31.8186ZM32.8496 31.8186C32.5368 31.8186 32.2672 31.7088 32.0409 31.4892C31.8213 31.2629 31.7115 30.9933 31.7115 30.6805C31.7115 30.3677 31.8213 30.1015 32.0409 29.8819C32.2672 29.6556 32.5368 29.5424 32.8496 29.5424C33.1624 29.5424 33.4286 29.6556 33.6482 29.8819C33.8745 30.1015 33.9876 30.3677 33.9876 30.6805C33.9876 30.9933 33.8745 31.2629 33.6482 31.4892C33.4286 31.7088 33.1624 31.8186 32.8496 31.8186Z" fill="white" style="fill:white;fill-opacity:1;"/>
<path d="M30.5734 27.2696C30.2606 27.2696 29.9944 27.1598 29.7748 26.9402C29.5551 26.7206 29.4453 26.4543 29.4453 26.1415C29.4453 25.8287 29.5551 25.5592 29.7748 25.3329C29.9944 25.1133 30.2606 25.0035 30.5734 25.0035C30.8862 25.0035 31.1558 25.1133 31.382 25.3329C31.6017 25.5592 31.7115 25.8287 31.7115 26.1415C31.7115 26.4543 31.6017 26.7206 31.382 26.9402C31.1558 27.1598 30.8862 27.2696 30.5734 27.2696ZM32.8496 27.2696C32.5368 27.2696 32.2672 27.1598 32.0409 26.9402C31.8213 26.7206 31.7115 26.4543 31.7115 26.1415C31.7115 25.8287 31.8213 25.5592 32.0409 25.3329C32.2672 25.1133 32.5368 25.0035 32.8496 25.0035C33.1624 25.0035 33.4286 25.1133 33.6482 25.3329C33.8745 25.5592 33.9876 25.8287 33.9876 26.1415C33.9876 26.4543 33.8745 26.7206 33.6482 26.9402C33.4286 27.1598 33.1624 27.2696 32.8496 27.2696ZM30.5734 25.0035C30.2606 25.0035 29.9944 24.8936 29.7748 24.674C29.5551 24.4477 29.4453 24.1782 29.4453 23.8654C29.4453 23.5526 29.5551 23.2864 29.7748 23.0667C29.9944 22.8405 30.2606 22.7273 30.5734 22.7273C30.8862 22.7273 31.1558 22.8405 31.382 23.0667C31.6017 23.2864 31.7115 23.5526 31.7115 23.8654C31.7115 24.1782 31.6017 24.4477 31.382 24.674C31.1558 24.8936 30.8862 25.0035 30.5734 25.0035ZM32.8496 25.0035C32.5368 25.0035 32.2672 24.8936 32.0409 24.674C31.8213 24.4477 31.7115 24.1782 31.7115 23.8654C31.7115 23.5526 31.8213 23.2864 32.0409 23.0667C32.2672 22.8405 32.5368 22.7273 32.8496 22.7273C33.1624 22.7273 33.4286 22.8405 33.6482 23.0667C33.8745 23.2864 33.9876 23.5526 33.9876 23.8654C33.9876 24.1782 33.8745 24.4477 33.6482 24.674C33.4286 24.8936 33.1624 25.0035 32.8496 25.0035Z" fill="white" style="fill:white;fill-opacity:1;"/>
<path d="M30.5734 20.4545C30.2606 20.4545 29.9944 20.3447 29.7748 20.1251C29.5551 19.9055 29.4453 19.6392 29.4453 19.3264C29.4453 19.0136 29.5551 18.7441 29.7748 18.5178C29.9944 18.2982 30.2606 18.1884 30.5734 18.1884C30.8862 18.1884 31.1558 18.2982 31.382 18.5178C31.6017 18.7441 31.7115 19.0136 31.7115 19.3264C31.7115 19.6392 31.6017 19.9055 31.382 20.1251C31.1558 20.3447 30.8862 20.4545 30.5734 20.4545ZM32.8496 20.4545C32.5368 20.4545 32.2672 20.3447 32.0409 20.1251C31.8213 19.9055 31.7115 19.6392 31.7115 19.3264C31.7115 19.0136 31.8213 18.7441 32.0409 18.5178C32.2672 18.2982 32.5368 18.1884 32.8496 18.1884C33.1624 18.1884 33.4286 18.2982 33.6482 18.5178C33.8745 18.7441 33.9876 19.0136 33.9876 19.3264C33.9876 19.6392 33.8745 19.9055 33.6482 20.1251C33.4286 20.3447 33.1624 20.4545 32.8496 20.4545ZM30.5734 18.1884C30.2606 18.1884 29.9944 18.0785 29.7748 17.8589C29.5551 17.6326 29.4453 17.3631 29.4453 17.0503C29.4453 16.7375 29.5551 16.4713 29.7748 16.2516C29.9944 16.0253 30.2606 15.9122 30.5734 15.9122C30.8862 15.9122 31.1558 16.0253 31.382 16.2516C31.6017 16.4713 31.7115 16.7375 31.7115 17.0503C31.7115 17.3631 31.6017 17.6326 31.382 17.8589C31.1558 18.0785 30.8862 18.1884 30.5734 18.1884ZM32.8496 18.1884C32.5368 18.1884 32.2672 18.0785 32.0409 17.8589C31.8213 17.6326 31.7115 17.3631 31.7115 17.0503C31.7115 16.7375 31.8213 16.4713 32.0409 16.2516C32.2672 16.0253 32.5368 15.9122 32.8496 15.9122C33.1624 15.9122 33.4286 16.0253 33.6482 16.2516C33.8745 16.4713 33.9876 16.7375 33.9876 17.0503C33.9876 17.3631 33.8745 17.6326 33.6482 17.8589C33.4286 18.0785 33.1624 18.1884 32.8496 18.1884Z" fill="white" style="fill:white;fill-opacity:1;"/>
<path d="M30.5734 13.6394C30.2606 13.6394 29.9944 13.5296 29.7748 13.3099C29.5551 13.0903 29.4453 12.8241 29.4453 12.5113C29.4453 12.1985 29.5551 11.9289 29.7748 11.7026C29.9944 11.483 30.2606 11.3732 30.5734 11.3732C30.8862 11.3732 31.1558 11.483 31.382 11.7026C31.6017 11.9289 31.7115 12.1985 31.7115 12.5113C31.7115 12.8241 31.6017 13.0903 31.382 13.3099C31.1558 13.5296 30.8862 13.6394 30.5734 13.6394ZM32.8496 13.6394C32.5368 13.6394 32.2672 13.5296 32.0409 13.3099C31.8213 13.0903 31.7115 12.8241 31.7115 12.5113C31.7115 12.1985 31.8213 11.9289 32.0409 11.7026C32.2672 11.483 32.5368 11.3732 32.8496 11.3732C33.1624 11.3732 33.4286 11.483 33.6482 11.7026C33.8745 11.9289 33.9876 12.1985 33.9876 12.5113C33.9876 12.8241 33.8745 13.0903 33.6482 13.3099C33.4286 13.5296 33.1624 13.6394 32.8496 13.6394ZM30.5734 11.3732C30.2606 11.3732 29.9944 11.2634 29.7748 11.0438C29.5551 10.8175 29.4453 10.5479 29.4453 10.2351C29.4453 9.92232 29.5551 9.6561 29.7748 9.43647C29.9944 9.21019 30.2606 9.09705 30.5734 9.09705C30.8862 9.09705 31.1558 9.21019 31.382 9.43647C31.6017 9.6561 31.7115 9.92232 31.7115 10.2351C31.7115 10.5479 31.6017 10.8175 31.382 11.0438C31.1558 11.2634 30.8862 11.3732 30.5734 11.3732ZM32.8496 11.3732C32.5368 11.3732 32.2672 11.2634 32.0409 11.0438C31.8213 10.8175 31.7115 10.5479 31.7115 10.2351C31.7115 9.92232 31.8213 9.6561 32.0409 9.43647C32.2672 9.21019 32.5368 9.09705 32.8496 9.09705C33.1624 9.09705 33.4286 9.21019 33.6482 9.43647C33.8745 9.6561 33.9876 9.92232 33.9876 10.2351C33.9876 10.5479 33.8745 10.8175 33.6482 11.0438C33.4286 11.2634 33.1624 11.3732 32.8496 11.3732Z" fill="#D71923" style="fill:#D71923;fill:color(display-p3 0.8431 0.0980 0.1373);fill-opacity:1;"/>
</svg>
